<?xml version="1.0" encoding="UTF-8" standalone="no"?>
<svg
   xmlns:dc="http://purl.org/dc/elements/1.1/"
   xmlns:cc="http://creativecommons.org/ns#"
   xmlns:rdf="http://www.w3.org/1999/02/22-rdf-syntax-ns#"
   xmlns:svg="http://www.w3.org/2000/svg"
   xmlns="http://www.w3.org/2000/svg"
   viewBox="0 0 990.01758 199.104"
   height="199.104"
   width="990.01758"
   xml:space="preserve"
   id="svg2"
   version="1.1"><metadata
     id="metadata8"><rdf:RDF><cc:Work
         rdf:about=""><dc:format>image/svg+xml</dc:format><dc:type
           rdf:resource="http://purl.org/dc/dcmitype/StillImage" /></cc:Work></rdf:RDF></metadata><defs
     id="defs6"><clipPath
       id="clipPath14"
       clipPathUnits="userSpaceOnUse"><path
         id="path12"
         d="M 0,0 H 841.89 V 595.276 H 0 Z" /></clipPath><clipPath
       id="clipPath22"
       clipPathUnits="userSpaceOnUse"><path
         id="path20"
         d="M 0,595.276 H 841.89 V 0 H 0 Z" /></clipPath><clipPath
       id="clipPath92"
       clipPathUnits="userSpaceOnUse"><path
         id="path90"
         d="M 0,595.276 H 841.89 V 0 H 0 Z" /></clipPath></defs><g
     clip-path="url(#clipPath14)"
     transform="matrix(1.3333333,0,0,-1.3333333,-71.4824,516.612)"
     id="g10"><g
       id="g16"><g
         clip-path="url(#clipPath22)"
         id="g18"><g
           transform="translate(232.8623,327.1055)"
           id="g24"><path
             id="path26"
             style="fill:#494e60;fill-opacity:1;fill-rule:nonzero;stroke:none"
             d="m 0,0 c -1.462,0 -2.827,-0.634 -3.655,-1.657 v -6.385 h 5.604 v -3.752 h -5.604 v -19.642 h -4.143 v 19.642 h -3.606 v 3.752 h 3.606 v 7.993 C -5.849,2.681 -3.021,3.899 0,3.899 H 2.437 V 0 Z" /></g><path
           id="path28"
           style="fill:#494e60;fill-opacity:1;fill-rule:nonzero;stroke:none"
           d="m 242.753,319.064 h 4.143 V 295.67 h -4.143 z m -0.243,11.697 h 4.63 V 325.4 h -4.63 z" /><g
           transform="translate(272.9673,313.5078)"
           id="g30"><path
             id="path32"
             style="fill:#494e60;fill-opacity:1;fill-rule:nonzero;stroke:none"
             d="m 0,0 c -1.316,1.268 -3.509,2.145 -6.335,2.145 -2.925,0 -4.972,-0.829 -6.336,-1.95 v -12.428 c 1.364,-1.267 3.557,-2.193 6.336,-2.193 2.923,0 5.117,1.024 6.335,2.193 z m -6.335,-18.324 c -4.874,0 -8.481,1.9 -10.479,3.996 v 31.581 h 4.143 V 4.484 c 1.949,0.974 4.045,1.559 6.579,1.559 4.192,0 7.847,-1.461 10.235,-3.996 v -16.375 c -2.047,-2.193 -5.751,-3.996 -10.478,-3.996" /></g><g
           transform="translate(299.5249,313.8979)"
           id="g34"><path
             id="path36"
             style="fill:#494e60;fill-opacity:1;fill-rule:nonzero;stroke:none"
             d="M 0,0 C -1.365,1.072 -3.021,1.754 -5.702,1.754 -8.236,1.754 -9.942,1.169 -11.453,0 V -4.63 H 0 Z m -5.653,-18.714 c -3.607,0 -7.116,0.974 -9.748,3.362 V 2.047 c 2.339,2.29 5.702,3.606 9.699,3.606 3.899,0 7.31,-1.267 9.747,-3.606 V -8.236 h -15.498 v -5.02 c 1.511,-1.121 3.46,-1.511 5.8,-1.56 2.241,0 3.996,0.341 5.604,1.56 v 2.583 h 4.143 v -4.679 c -2.583,-2.242 -6.043,-3.362 -9.747,-3.362" /></g><g
           transform="translate(320.6733,315.4087)"
           id="g38"><path
             id="path40"
             style="fill:#494e60;fill-opacity:1;fill-rule:nonzero;stroke:none"
             d="M 0,0 C -1.706,0 -3.558,-0.731 -4.63,-1.706 V -19.739 H -8.772 V 0.487 C -6.384,2.681 -3.314,3.899 0,3.899 H 4.045 V 0 Z" /></g><g
           transform="translate(346.6479,313.4595)"
           id="g42"><path
             id="path44"
             style="fill:#494e60;fill-opacity:1;fill-rule:nonzero;stroke:none"
             d="M 0,0 C -1.365,1.316 -3.558,2.193 -6.336,2.193 -9.26,2.193 -11.453,1.218 -12.672,0 v -12.185 c 1.316,-1.315 3.509,-2.192 6.336,-2.192 2.924,0 4.971,0.877 6.336,1.998 z m -6.336,-26.805 c -4.435,0 -8.432,1.17 -10.478,2.972 v 4.534 h 4.142 v -2.389 c 1.316,-0.975 3.461,-1.316 6.336,-1.365 2.924,0 4.922,0.586 6.336,1.658 v 4.678 c -1.95,-0.926 -4.045,-1.559 -6.58,-1.559 -4.191,0 -7.846,1.51 -10.234,3.996 V 2.095 c 2.046,2.242 5.751,3.997 10.478,3.997 4.874,0 8.48,-1.852 10.479,-3.997 v -25.683 c -1.999,-1.755 -5.654,-3.217 -10.479,-3.217" /></g><path
           id="path46"
           style="fill:#494e60;fill-opacity:1;fill-rule:nonzero;stroke:none"
           d="m 358.146,330.761 h 4.143 V 295.67 h -4.143 z" /><g
           transform="translate(386.4595,305.0767)"
           id="g48"><path
             id="path50"
             style="fill:#494e60;fill-opacity:1;fill-rule:nonzero;stroke:none"
             d="m 0,0 c -1.17,0.633 -3.363,1.169 -5.751,1.218 -2.486,0 -4.191,-0.292 -5.849,-1.462 v -4.484 c 1.267,-0.877 3.168,-1.315 5.849,-1.364 2.583,0 4.435,0.439 5.751,1.364 z m -5.751,-9.893 c -4.191,0 -7.116,0.926 -9.748,3.021 v 8.821 c 2.194,1.803 5.508,2.973 9.212,2.973 2.339,0 4.337,-0.341 6.287,-1.072 v 5.459 c -1.462,0.974 -3.217,1.364 -5.654,1.364 -2.242,0 -3.85,-0.243 -5.458,-1.121 v -2.68 h -4.143 v 4.922 c 2.583,1.852 5.946,2.681 9.601,2.681 3.607,0 7.018,-0.926 9.65,-2.973 V -6.872 C 1.462,-8.87 -1.462,-9.893 -5.751,-9.893" /></g><g
           transform="translate(407.8999,295.1836)"
           id="g52"><path
             id="path54"
             style="fill:#494e60;fill-opacity:1;fill-rule:nonzero;stroke:none"
             d="m 0,0 c -3.753,0 -6.969,1.023 -9.504,3.021 v 5.702 h 4.046 V 5.166 C -4.094,4.24 -2.242,3.801 0,3.801 2.388,3.85 3.899,4.24 5.458,5.263 V 8.236 L -9.406,13.5 v 7.846 c 2.485,1.998 5.653,3.022 9.406,3.022 3.558,0 6.774,-0.926 9.406,-3.022 V 15.692 H 5.361 v 3.607 C 3.801,20.225 2.339,20.566 0,20.566 c -2.291,0 -3.704,-0.341 -5.361,-1.364 V 16.131 L 9.503,10.819 V 3.021 C 6.92,0.877 3.558,0 0,0" /></g><g
           transform="translate(442.207,313.7031)"
           id="g56"><path
             id="path58"
             style="fill:#f25b21;fill-opacity:1;fill-rule:nonzero;stroke:none"
             d="m 0,0 c -1.365,1.121 -3.412,1.949 -6.336,1.949 -2.827,0 -5.019,-0.877 -6.336,-2.144 v -12.233 c 1.219,-1.17 3.412,-2.193 6.336,-2.193 2.778,0 4.971,0.926 6.336,2.193 z m -6.336,-18.52 c -4.727,0 -8.432,1.803 -10.478,3.997 V 1.852 c 2.388,2.534 6.043,3.996 10.234,3.996 2.535,0 4.631,-0.585 6.58,-1.559 V 17.058 H 4.143 V -14.523 C 2.145,-16.619 -1.462,-18.52 -6.336,-18.52" /></g><path
           id="path60"
           style="fill:#f25b21;fill-opacity:1;fill-rule:nonzero;stroke:none"
           d="m 455.653,319.064 h 4.143 V 295.67 h -4.143 z m -0.243,11.697 h 4.63 V 325.4 h -4.63 z" /><g
           transform="translate(478.2168,295.1836)"
           id="g62"><path
             id="path64"
             style="fill:#f25b21;fill-opacity:1;fill-rule:nonzero;stroke:none"
             d="m 0,0 c -3.753,0 -6.97,1.023 -9.504,3.021 v 5.702 h 4.045 V 5.166 C -4.094,4.24 -2.242,3.801 0,3.801 2.388,3.85 3.898,4.24 5.458,5.263 V 8.236 L -9.406,13.5 v 7.846 c 2.485,1.998 5.653,3.022 9.406,3.022 3.558,0 6.774,-0.926 9.406,-3.022 V 15.692 H 5.361 v 3.607 C 3.802,20.225 2.339,20.566 0,20.566 c -2.291,0 -3.704,-0.341 -5.361,-1.364 V 16.131 L 9.504,10.819 V 3.021 C 6.921,0.877 3.558,0 0,0" /></g><g
           transform="translate(505.7002,295.1836)"
           id="g66"><path
             id="path68"
             style="fill:#f25b21;fill-opacity:1;fill-rule:nonzero;stroke:none"
             d="m 0,0 c -3.558,0 -7.359,0.975 -9.991,3.362 v 17.692 c 2.534,2.193 6.238,3.314 9.991,3.314 3.558,0 7.311,-1.024 9.991,-3.314 v -5.41 H 5.849 v 3.314 C 4.338,20.03 2.339,20.469 0,20.469 c -2.291,0 -4.289,-0.342 -5.849,-1.511 V 5.458 C -4.387,4.337 -2.388,3.947 0,3.898 c 2.242,0 4.24,0.342 5.849,1.56 V 8.772 H 9.991 V 3.362 C 7.408,1.121 3.753,0 0,0" /></g><g
           transform="translate(540.2021,313.5078)"
           id="g70"><path
             id="path72"
             style="fill:#f25b21;fill-opacity:1;fill-rule:nonzero;stroke:none"
             d="m 0,0 c -1.268,1.219 -3.461,2.145 -6.336,2.145 -2.778,0 -5.019,-0.877 -6.336,-2.145 v -12.233 c 1.219,-1.169 3.412,-2.193 6.336,-2.193 2.778,0 4.971,0.926 6.336,2.193 z m -6.336,-18.324 c -4.727,0 -8.432,1.754 -10.478,4.044 V 2.047 c 1.949,2.144 5.604,3.996 10.478,3.996 4.728,0 8.383,-1.754 10.479,-3.996 V -14.28 c -1.998,-2.144 -5.605,-4.044 -10.479,-4.044" /></g><g
           transform="translate(562.8604,295.1836)"
           id="g74"><path
             id="path76"
             style="fill:#f25b21;fill-opacity:1;fill-rule:nonzero;stroke:none"
             d="M 0,0 C -3.558,0 -7.555,0.975 -10.235,3.362 V 23.88 h 4.143 V 5.653 C -4.581,4.483 -2.34,3.898 0,3.898 c 2.29,0 4.532,0.488 6.092,1.755 V 23.88 h 4.142 V 3.362 C 7.7,1.121 3.704,0 0,0" /></g><g
           transform="translate(598.0928,295.6699)"
           id="g78"><path
             id="path80"
             style="fill:#f25b21;fill-opacity:1;fill-rule:nonzero;stroke:none"
             d="m 0,0 v 18.228 c -1.462,1.218 -3.704,1.754 -6.092,1.754 -2.242,0 -4.484,-0.438 -6.092,-1.754 V 0 h -4.143 v 20.567 c 2.584,2.193 6.58,3.314 10.235,3.314 3.607,0 7.603,-1.023 10.235,-3.314 L 4.143,0 Z" /></g><g
           transform="translate(620.5566,295.4268)"
           id="g82"><path
             id="path84"
             style="fill:#f25b21;fill-opacity:1;fill-rule:nonzero;stroke:none"
             d="m 0,0 c -3.021,0 -5.849,1.218 -7.798,3.948 v 15.936 h -3.606 v 3.753 h 3.606 v 7.798 h 4.143 V 23.637 H 1.949 V 19.884 H -3.655 V 5.556 C -2.827,4.532 -1.462,3.899 0,3.899 H 2.437 V 0 Z" /></g></g></g><g
       id="g86"><g
         clip-path="url(#clipPath92)"
         id="g88"><g
           transform="translate(80.8545,331.3228)"
           id="g94"><path
             id="path96"
             style="fill:#f25b21;fill-opacity:1;fill-rule:nonzero;stroke:none"
             d="m 0,0 c 5.958,1.175 14.505,-0.188 19.672,-2.729 5.167,-2.542 5.208,-6.124 8.599,-7.818 3.372,-1.686 9.658,-3.215 15.958,-3.417 6.08,-0.195 8.662,0.503 9.417,1.333 0.687,0.757 -1.2,7.009 -5.209,10.834 -2,-0.625 -6.358,0.46 -7.791,6.166 -1.295,5.154 5.042,8.458 8.542,6.25 3.5,-2.208 4.875,-7.375 3.166,-9.666 0.5,-0.834 1.972,-3.572 3.5,-5.167 1.831,-1.911 4.541,-3.875 6.458,-3.75 1.917,0.125 7.667,3.25 11.75,7.625 4.084,4.375 7.222,9.102 9.51,12.549 3.116,4.697 2.282,6.071 2.518,11.204 0.209,4.573 5.496,11.664 8.389,14.33 2.704,2.492 9.189,7.586 16.417,2.542 6.62,-4.62 3.094,-14.228 -0.347,-18.341 -3.328,-3.978 -7.826,-8.316 -11.916,-9.147 C 93.472,11.75 90.518,10.321 85.877,4.574 80.778,-1.741 74.688,-7.589 74.188,-17.172 c 1.199,-0.532 2.666,-0.875 3.791,-0.875 0.667,1.041 2.636,3.443 6.303,2.902 3.666,-0.542 5.874,-2.812 5.328,-6.588 -0.534,-3.7 -4.343,-4.738 -7.551,-4.238 -3.209,0.5 -4.413,3.34 -4.455,3.882 -1.041,0.146 -2.049,0.272 -3.583,-0.042 0.15,-3.042 0.604,-7.941 5.772,-14.831 5.538,-7.384 8.662,-13.395 15.02,-14.854 7.679,-1.762 11.33,-7.425 14.083,-11.189 3.426,-4.686 6.477,-15.158 -2.792,-19.292 -8.661,-3.864 -15.067,3.547 -18.75,8.959 -3.827,5.623 -4.536,10.425 -4.125,13.333 0.464,3.282 -0.208,6.667 -2.958,11.25 -2.75,4.583 -7.734,11.678 -10,13.916 -2.479,2.448 -7.251,5.244 -8.709,5.209 -1.729,-0.042 -5.166,-1.5 -7.083,-3.792 -1.917,-2.291 -3.334,-3.833 -4.167,-5.458 0.99,-1.855 0.7,-4.98 -1.458,-7.667 -2.458,-3.063 -6.874,-4.023 -9.676,-0.655 -2.787,3.352 -0.869,6.749 0.884,9.023 1.552,2.013 4.05,3.038 6.459,2.341 1.56,1.141 4.749,5.169 5.546,7.225 0.73,1.884 1.22,3.723 1.091,4.95 -0.137,1.303 -5.298,3.484 -12.964,3.734 -7.667,0.25 -12.907,0.198 -15.757,-2.618 -2.914,-2.878 -7.654,-5.941 -17.892,-5.395 -8.691,0.463 -16.358,3.937 -17.483,12.437 C -12.063,-7.005 -6.599,-1.301 0,0" /></g><g
           transform="translate(768.1934,331.3228)"
           id="g98"><path
             id="path100"
             style="fill:#f25b21;fill-opacity:1;fill-rule:nonzero;stroke:none"
             d="m 0,0 c -5.957,1.175 -14.505,-0.188 -19.672,-2.729 -5.167,-2.542 -5.207,-6.124 -8.598,-7.818 -3.373,-1.686 -9.658,-3.215 -15.959,-3.417 -6.08,-0.195 -8.662,0.503 -9.416,1.333 -0.688,0.757 1.2,7.009 5.208,10.834 2,-0.625 6.359,0.46 7.792,6.166 1.295,5.154 -5.043,8.458 -8.543,6.25 -3.5,-2.208 -4.875,-7.375 -3.166,-9.666 -0.5,-0.834 -1.971,-3.572 -3.5,-5.167 -1.83,-1.911 -4.541,-3.875 -6.458,-3.75 -1.917,0.125 -7.667,3.25 -11.75,7.625 -4.083,4.375 -7.221,9.102 -9.509,12.549 -3.117,4.697 -2.283,6.071 -2.519,11.204 -0.209,4.573 -5.496,11.664 -8.389,14.33 -2.703,2.492 -9.189,7.586 -16.416,2.542 -6.621,-4.62 -3.094,-14.228 0.346,-18.341 3.328,-3.978 7.826,-8.316 11.916,-9.147 5.161,-1.048 8.115,-2.477 12.756,-8.224 5.1,-6.315 11.189,-12.163 11.689,-21.746 -1.199,-0.532 -2.666,-0.875 -3.791,-0.875 -0.666,1.041 -2.636,3.443 -6.302,2.902 -3.666,-0.542 -5.874,-2.812 -5.328,-6.588 0.534,-3.7 4.342,-4.738 7.55,-4.238 3.209,0.5 4.414,3.34 4.455,3.882 1.041,0.146 2.049,0.272 3.584,-0.042 -0.15,-3.042 -0.605,-7.941 -5.773,-14.831 -5.537,-7.384 -8.661,-13.395 -15.02,-14.854 -7.679,-1.762 -11.33,-7.425 -14.082,-11.189 -3.427,-4.686 -6.477,-15.158 2.791,-19.292 8.661,-3.864 15.068,3.547 18.75,8.959 3.828,5.623 4.537,10.425 4.125,13.333 -0.464,3.282 0.209,6.667 2.959,11.25 2.75,4.583 7.734,11.678 10,13.916 2.479,2.448 7.25,5.244 8.708,5.209 1.73,-0.042 5.166,-1.5 7.083,-3.792 1.917,-2.291 3.334,-3.833 4.167,-5.458 -0.989,-1.855 -0.7,-4.98 1.458,-7.667 2.459,-3.063 6.875,-4.023 9.676,-0.655 2.787,3.352 0.869,6.749 -0.883,9.023 -1.552,2.013 -4.05,3.038 -6.459,2.341 -1.56,1.141 -4.75,5.169 -5.546,7.225 -0.731,1.884 -1.221,3.723 -1.091,4.95 0.137,1.303 5.298,3.484 12.964,3.734 7.666,0.25 12.907,0.198 15.756,-2.618 2.914,-2.878 7.655,-5.941 17.892,-5.395 8.691,0.463 16.358,3.937 17.483,12.437 C 12.063,-7.005 6.6,-1.301 0,0" /></g></g></g></g></svg>